<svg width="214" height="52" viewBox="0 0 332.11 81.27" fill="none" xmlns="http://www.w3.org/2000/svg">
                 <path d="M54.48,104a16.85,16.85,0,0,0-12.12,5,17.49,17.49,0,0,0-4.91,12.4c0,.08,0,.17,0,.26h2.39v-.26a14.63,14.63,0,1,1,29.26,0c0,.08,0,.17,0,.26h2.4v-.26A17.49,17.49,0,0,0,66.59,109,16.82,16.82,0,0,0,54.48,104Z" transform="translate(-14.41 -41.47)" fill="#002169"/><path d="M54.48,111.24a9.8,9.8,0,0,0-7,2.89,10.18,10.18,0,0,0-2.86,7.22c0,.09,0,.18,0,.27h2.66c0-.14,0-.27,0-.42a7.26,7.26,0,0,1,14.51,0c0,.15,0,.28,0,.42h2.67c0-.09,0-.18,0-.27a10.22,10.22,0,0,0-2.86-7.22A9.82,9.82,0,0,0,54.48,111.24Z" transform="translate(-14.41 -41.47)" fill="#002169"/><path d="M79.18,46.45c-3.26,2.21-11.71,11.83-11.71,11.83-1.68,1.8-2.33,1.45-2.33,1.45-.79.08-1.15-1.55-1.15-1.55-.22-.88-1.09-4.33-2.38-8-.48-1.53-.92-2.8-1.37-3.89,0,0,1.56-.1,2.4-.19s.73.16.83.54c0,0,.21.69.48.69a.32.32,0,0,0,.33-.27c.17-.74.18-3.82-1.24-4a15.16,15.16,0,0,0-3.12,0,4,4,0,0,0-1.64-1.25c-.9-.42-4.51-.38-5.74-.1a3.89,3.89,0,0,0-2.5,2.2,44.28,44.28,0,0,0-2.7,6.28c-1.29,3.69-2.15,7.14-2.38,8,0,0-.35,1.63-1.14,1.55,0,0-.65.35-2.34-1.45,0,0-8.45-9.62-11.71-11.83-3-2-13.21-3.94-15.09,13.79-1.81,17.11,5.6,36.66,11,61.38a18.52,18.52,0,0,0,7.47-12l.56.87c.45.68,1.87.85,2.88-.55L39,106.47a2.38,2.38,0,0,0,0-2.85l-.53-.85a.35.35,0,0,1,.08-.45l3.76-2.78a.34.34,0,0,1,.45.06l.63.78a2.31,2.31,0,0,0,2.67.87l4-1.32a2.34,2.34,0,0,0,1.65-2.3l.07-1a.34.34,0,0,1,.33-.31h4.68a.33.33,0,0,1,.32.31l.07,1a2.34,2.34,0,0,0,1.66,2.3l4,1.32a2.29,2.29,0,0,0,2.67-.87l.64-.78a.33.33,0,0,1,.44-.06l3.76,2.78a.34.34,0,0,1,.08.45l-.53.85a2.4,2.4,0,0,0,0,2.85l2.48,3.46c1,1.4,2.42,1.23,2.88.55l.55-.87a18.52,18.52,0,0,0,7.48,12C88.67,96.9,96.08,77.35,94.27,60.24,92.39,42.51,82.15,44.42,79.18,46.45ZM40.89,60.83c1.37,1.36,2.25,1.29,2.61,1.27a1.32,1.32,0,0,0,.8-.28c-.33,1.78-.58,4.58-.58,4.6A2.26,2.26,0,0,1,43,67.64a3.24,3.24,0,0,1-3.66.72C36.63,67.44,36,65.71,36,64.45a13.26,13.26,0,0,1,.38-2.19A17.34,17.34,0,0,1,38,57.73ZM31.63,51a57.64,57.64,0,0,1,4.8,5,25.9,25.9,0,0,0-1.9,5.17c-.16.76-.54,2.78-2,3.24A3.34,3.34,0,0,1,30,64a5,5,0,0,1-2.69-4.05,9.3,9.3,0,0,1,.46-2.29A15.51,15.51,0,0,1,31.63,51Zm-8.49-3.32a5.76,5.76,0,0,1,5.61.71,8.1,8.1,0,0,1,1.36,1.15c-1.23,1-3.21,3-4.64,7.7a1.33,1.33,0,0,1-2,1,5.62,5.62,0,0,0-4.76.51,6.25,6.25,0,0,0-1.88,2.13C17.07,53.73,20.35,48.83,23.14,47.69ZM27,117.54c-2-9.38-5-21.32-5.08-21.42C18.09,81.7,17.36,75.07,17.35,75a51.23,51.23,0,0,1-.57-6c-.08-4.42.71-7.66,4.08-8.63a3.56,3.56,0,0,1,3.33.81s-.26,1.44-.33,2.31a31.62,31.62,0,0,0-.19,3.3c.27,14.14,3.41,24.1,5.46,32a61,61,0,0,1,1.77,7.57C31.36,112,28,116.42,27,117.54Zm9.7-16.23a1.81,1.81,0,0,0-.33,2.19l1,1.64-2.6,3.63c-3.45-10-8.65-27.45-8.71-40.47,0-.65,0-1.29,0-1.92a29.62,29.62,0,0,1,.24-3.23c.34,1.75,2.72,4.65,7.08,3.6,0,.4,0,.77,0,1.24,0,1.51,0,4.62.2,6.36a113.44,113.44,0,0,0,5.11,25.46Zm7.43-3.54h0A1.75,1.75,0,0,0,42,97.42l-1.23.91A102.42,102.42,0,0,1,35.62,67.9c.42,2.08,5,4.42,8,1.74-.18,2.32-.45,13.7,1.76,29.62ZM46,82.93c-.23-3.22-.7-17.54,1-23.13.49,1.8,3.46,3.35,6.12,1.63V82.89C52.72,81.54,48.28,80.21,46,82.93Zm7.24,11.41-2.08,0c-.93,0-1.51,1-1.54,1.57,0,0-.09,1.44-.12,1.94l-2.24.74c-1.09-8.51-.93-11-.93-11,0-2.8,1.66-3.66,3.37-3.65,1.26,0,3.54.46,3.54,4.22Zm1.21-37h0a.25.25,0,0,0-.25.2,3.71,3.71,0,0,1-2.74,2.26,2.61,2.61,0,0,1-2.36-.53A3.61,3.61,0,0,1,48,56.41,9.25,9.25,0,0,1,48.22,55c.27-1.23.74-3,1.32-4.87,1-3,2.26-6,3.53-6.51a3.88,3.88,0,0,1,1-.12c2-.12,4.13,0,4.32.42A1.79,1.79,0,0,1,58.61,45s0,0-.11,0-2.13,0-2.58.51a.44.44,0,0,0-.11.39c0,.33.39.44.77.56a3,3,0,0,1,2.05,1.55,19.32,19.32,0,0,1,.78,2.08h0C60,52,60.46,53.8,60.73,55a8.08,8.08,0,0,1,.19,1.38,3.64,3.64,0,0,1-1.07,2.85,2.62,2.62,0,0,1-2.36.53,3.67,3.67,0,0,1-2.74-2.26A.27.27,0,0,0,54.49,57.33Zm7.16,41.29-2.24-.74c0-.5-.12-1.94-.12-1.94a1.77,1.77,0,0,0-1.54-1.57l-2.07,0V88.15c0-3.76,2.27-4.2,3.53-4.22,1.71,0,3.38.85,3.38,3.65C62.59,87.58,62.74,90.11,61.65,98.62Zm1.26-15.69c-2.24-2.72-6.67-1.39-7.14,0V61.43c2.65,1.72,5.62.17,6.11-1.63C63.62,65.39,63.15,79.71,62.91,82.93ZM80.21,48.4a5.76,5.76,0,0,1,5.61-.71c2.79,1.14,6.06,6,6.35,13.18a6.14,6.14,0,0,0-1.88-2.13,5.62,5.62,0,0,0-4.76-.51,1.33,1.33,0,0,1-2-1c-1.42-4.72-3.41-6.73-4.64-7.7A8.18,8.18,0,0,1,80.21,48.4ZM77.32,51a15.41,15.41,0,0,1,3.91,6.64,9.3,9.3,0,0,1,.46,2.29A5,5,0,0,1,79,64a3.34,3.34,0,0,1-2.62.4c-1.42-.46-1.8-2.48-2-3.24A25.9,25.9,0,0,0,72.52,56,60.82,60.82,0,0,1,77.32,51ZM65.45,62.1c.36,0,1.25.09,2.62-1.27,0,0,2.65-2.81,2.91-3.1a17.34,17.34,0,0,1,1.59,4.53A13.26,13.26,0,0,1,73,64.45c0,1.26-.62,3-3.33,3.91A3.24,3.24,0,0,1,66,67.64a2.19,2.19,0,0,1-.72-1.22s-.26-2.82-.59-4.6A1.32,1.32,0,0,0,65.45,62.1ZM67,97.42a1.75,1.75,0,0,0-2.16.35l-1.21,1.49c2.21-15.92,1.94-27.3,1.76-29.62,3,2.68,7.53.34,8-1.74a102.85,102.85,0,0,1-5.12,30.43Zm7.18,11.35-2.6-3.63,1-1.64a1.81,1.81,0,0,0-.34-2.19l-2-1.5a113.34,113.34,0,0,0,5.12-25.46c.17-1.74.2-4.85.2-6.36,0-.47,0-.84,0-1.24,4.35,1,6.73-1.85,7.07-3.6a29.62,29.62,0,0,1,.24,3.23c0,.63,0,1.27,0,1.92C82.82,81.32,77.62,98.8,74.17,108.77Zm18-39.7a48.91,48.91,0,0,1-.57,6s-.74,6.67-4.55,21.09c0,.1-3.08,12-5.08,21.42-1-1.12-4.38-5.53-3.91-11.07a60.52,60.52,0,0,1,1.76-7.57C81.87,91,85,81,85.28,66.86a29.1,29.1,0,0,0-.19-3.3c-.07-.87-.32-2.31-.32-2.31a3.55,3.55,0,0,1,3.33-.81C91.47,61.41,92.25,64.65,92.17,69.07Z" transform="translate(-14.41 -41.47)" fill="#002169"/><path d="M106,110.35a11.92,11.92,0,0,0,11.93,11.75,11.76,11.76,0,0,0,6.83-2.25v-3.16a10,10,0,0,1-6.92,3,9.47,9.47,0,0,1-.06-18.94,9.79,9.79,0,0,1,7,3v-3.15a11,11,0,0,0-6.83-2.25A12,12,0,0,0,106,110.35Z" transform="translate(-14.41 -41.47)" fill="#002169"/><path d="M139.19,98.42a11.94,11.94,0,1,0,11.93,12A12,12,0,0,0,139.19,98.42Zm0,21.48a9.55,9.55,0,1,1,9.38-9.55A9.51,9.51,0,0,1,139.19,119.9Z" transform="translate(-14.41 -41.47)" fill="#002169"/><polygon points="157.07 75.07 139.21 56.37 139.21 80.23 141.77 80.23 141.77 62.6 159.62 81.27 159.62 57.34 157.07 57.34 157.07 75.07" fill="#002169"/><polygon points="164.81 80.23 167.36 80.23 167.36 68.88 174.98 68.88 174.98 66.51 167.36 66.51 167.36 59.71 175.22 59.71 175.22 57.34 164.81 57.34 164.81 80.23" fill="#002169"/><rect x="180.41" y="57.34" width="2.55" height="22.89" fill="#002169"/><polygon points="206 75.07 188.15 56.37 188.15 80.23 190.7 80.23 190.7 62.6 208.55 81.27 208.55 57.34 206 57.34 206 75.07" fill="#002169"/><path d="M240.42,101.58c-2.7-2.31-5.49-2.77-8.93-2.77h-4.31V121.7h4.25c3.59,0,6.32-.45,9-2.88a11.74,11.74,0,0,0-.06-17.24ZM238.81,117c-2.09,2-4.43,2.37-7.22,2.37h-1.86V101.18h1.86c2.7,0,5,.36,7.1,2.22a9.34,9.34,0,0,1,.12,13.57Z" transform="translate(-14.41 -41.47)" fill="#002169"/><path d="M261.08,112.44c0,1.8.09,3.8-1.12,5.26a6.1,6.1,0,0,1-4.5,2,5.89,5.89,0,0,1-4.61-2.19c-1.07-1.45-1-3.39-1-5.1V98.81H247.3v14.33c0,2.61.24,4.71,2.24,6.62a8.57,8.57,0,0,0,5.92,2.34,8.43,8.43,0,0,0,6.17-2.61c1.82-1.88,2-3.86,2-6.35V98.81h-2.55Z" transform="translate(-14.41 -41.47)" fill="#002169"/><path d="M275.93,108.59l-1.52-.67c-1.55-.7-3.58-1.61-3.58-3.58a3.63,3.63,0,0,1,3.79-3.55,4.22,4.22,0,0,1,3.95,2.49l2-1.31a6.56,6.56,0,0,0-5.92-3.55c-3.4,0-6.41,2.27-6.41,5.83,0,3.28,2.31,4.64,5,5.86l1.4.6c2.13,1,4.22,1.89,4.22,4.56a4.59,4.59,0,0,1-4.7,4.46,4.72,4.72,0,0,1-4.59-4.25l-2.49.7A7.23,7.23,0,0,0,281.42,115C281.42,111.38,278.9,109.89,275.93,108.59Z" transform="translate(-14.41 -41.47)" fill="#002169"/><polygon points="268.93 59.71 274.45 59.71 274.45 80.23 277.01 80.23 277.01 59.71 282.59 59.71 282.59 57.34 268.93 57.34 268.93 59.71" fill="#002169"/><path d="M312.91,105.13c0-5.16-4-6.32-8.38-6.32h-3.31V121.7h2.55v-10h.64l6.92,10h3.13l-7.29-10.26A6,6,0,0,0,312.91,105.13Zm-9.14,4.28v-8.23h.76c3.07,0,5.83.37,5.83,4.13,0,3.55-2.91,4.1-5.8,4.1Z" transform="translate(-14.41 -41.47)" fill="#002169"/><rect x="304.86" y="57.34" width="2.55" height="22.89" fill="#002169"/><path d="M336.23,97.72l-10.57,24h2.79l2.77-6.49H341l2.71,6.49h2.82Zm-4,15.12,3.92-9.17,3.82,9.17Z" transform="translate(-14.41 -41.47)" fill="#002169"/>
            </svg>